# xmcd
#
# Track frame offsets: 
#        150
#        12110
#        30324
#        49020
#        68412
#        82822
#        99854
#        116089
#        129181
#        148678
#        163366
#        176997
#
# Disc length: 2535 seconds
#
# Revision: 7
# Processed by: cddbd v1.5.2PL0 Copyright (c) Steve Scherf et al.
# Submitted via: ExactAudioCopy v1.0b4
#
DISCID=9009e50c
DTITLE=Steve Earle - Washington square serenade
DYEAR=2007
DGENRE=Country Rock
TTITLE0=Tennessee blues
TTITLE1=Down here below
TTITLE2=Satellite radio
TTITLE3=City of immigrants
TTITLE4=Sparkle and shine
TTITLE5=Come home to me
TTITLE6=Jericho road
TTITLE7=Oxycontin blues
TTITLE8=Red is the color
TTITLE9=Steve's hammer (for Pete)
TTITLE10=Day's aren't long enough
TTITLE11=Way down in the hole
EXTD=YEAR: 2007
EXTT0=
EXTT1=
EXTT2=
EXTT3=
EXTT4=
EXTT5=
EXTT6=
EXTT7=
EXTT8=
EXTT9=
EXTT10=
EXTT11=
PLAYORDER=
